<?xml version="1.0" encoding="UTF-8" standalone="no"?>
<!DOCTYPE svg PUBLIC "-//W3C//DTD SVG 1.1//EN" "http://www.w3.org/Graphics/SVG/1.1/DTD/svg11.dtd">
<svg version="1.1" xmlns="http://www.w3.org/2000/svg" xmlns:xlink="http://www.w3.org/1999/xlink" preserveAspectRatio="xMidYMid meet" viewBox="0 0 640 640" width="640" height="640"><defs><path d="M580.5 199.11C580.5 189.32 578.41 180.49 574.08 173.11C569.91 165.73 563.65 159.63 555.3 154.81C485.96 114.85 416.46 74.88 347.13 34.92C328.35 24.16 310.37 24.48 291.75 35.4C264.14 51.61 125.79 130.9 84.7 154.81C67.69 164.6 59.5 179.69 59.5 199.27C59.5 279.68 59.5 360.26 59.5 440.67C59.5 450.3 61.59 458.8 65.6 466.19C69.77 473.73 76.19 480.15 84.7 485.13C125.95 509.04 264.14 588.17 291.75 604.54C310.37 615.45 328.51 615.94 347.13 605.02C416.46 564.9 485.96 525.09 555.3 485.13C563.97 480.15 570.23 473.89 574.4 466.19C578.41 458.8 580.5 450.3 580.5 440.67C580.5 440.51 580.5 279.52 580.5 199.11" id="a4cHPsi9n"></path><path d="M320.64 319.01C167.42 407.22 82.3 456.22 65.28 466.03C69.45 473.57 75.87 479.99 84.38 484.97C125.63 508.88 263.82 588.01 291.43 604.38C310.05 615.29 328.19 615.77 346.8 604.86C416.14 564.74 485.64 524.93 554.98 484.97C563.65 479.99 569.91 473.73 574.08 466.03C557.18 456.22 472.7 407.22 320.64 319.01" id="a2QShUlrXq"></path><path d="M245.04 362.5C259.97 388.5 287.9 406 319.84 406C352.1 406 380.19 388.34 394.96 362.02C390 359.15 365.23 344.82 320.64 319.01L245.04 362.5" id="aKwdL3drb"></path><path d="M580.5 199.11C580.5 189.32 578.41 180.49 574.08 173.11C557.18 182.84 472.7 231.47 320.64 319.01C472.9 407.22 557.48 456.22 574.4 466.03C578.41 458.64 580.5 450.14 580.5 440.51C580.5 440.51 580.5 279.52 580.5 199.11" id="e7OKnQHFX5"></path><path d="M394.96 362.02C380.19 388.18 352.1 406 319.84 406C287.74 406 259.81 388.5 245.04 362.5C237.82 349.82 233.65 335.38 233.65 319.81C233.65 272.14 272.17 233.62 319.84 233.62C351.62 233.62 379.39 250.95 394.31 276.63C401.84 272.3 462.06 237.63 469.59 233.3C439.58 181.62 383.72 146.79 319.68 146.79C224.02 146.79 146.65 224.31 146.65 319.81C146.65 351.11 155 380.64 169.61 406C199.46 457.84 255.64 492.83 319.84 492.83C384.2 492.83 440.38 457.68 470.23 405.52C465.21 402.62 440.12 388.12 394.96 362.02" id="e96YfvY50G"></path><path d="M490.14 278.88C490.14 278.88 490.14 278.88 490.14 278.88C490.14 328.67 490.14 356.33 490.14 361.86C490.14 361.86 490.14 361.86 490.14 361.86C479.83 361.86 474.11 361.86 472.96 361.86C472.96 361.86 472.96 361.86 472.96 361.86C472.96 312.07 472.96 284.41 472.96 278.88C472.96 278.88 472.96 278.88 472.96 278.88C483.27 278.88 488.99 278.88 490.14 278.88Z" id="g1Y0I8xi7b"></path><path d="M528.18 278.88C528.18 278.88 528.18 278.88 528.18 278.88C528.18 328.67 528.18 356.33 528.18 361.86C528.18 361.86 528.18 361.86 528.18 361.86C517.87 361.86 512.15 361.86 511 361.86C511 361.86 511 361.86 511 361.86C511 312.07 511 284.41 511 278.88C511 278.88 511 278.88 511 278.88C521.31 278.88 527.03 278.88 528.18 278.88Z" id="bjfsZWGvs"></path><path d="M542.14 292.84C542.14 292.84 542.14 292.84 542.14 292.84C542.14 303.15 542.14 308.87 542.14 310.02C542.14 310.02 542.14 310.02 542.14 310.02C492.35 310.02 464.69 310.02 459.16 310.02C459.16 310.02 459.16 310.02 459.16 310.02C459.16 299.71 459.16 293.99 459.16 292.84C459.16 292.84 459.16 292.84 459.16 292.84C508.95 292.84 536.61 292.84 542.14 292.84Z" id="a3tReyokXR"></path><path d="M542.14 330.72C542.14 330.72 542.14 330.72 542.14 330.72C542.14 341.03 542.14 346.75 542.14 347.9C542.14 347.9 542.14 347.9 542.14 347.9C492.35 347.9 464.69 347.9 459.16 347.9C459.16 347.9 459.16 347.9 459.16 347.9C459.16 337.59 459.16 331.87 459.16 330.72C459.16 330.72 459.16 330.72 459.16 330.72C508.95 330.72 536.61 330.72 542.14 330.72Z" id="b3ND0kWmYr"></path></defs><g><g><g><use xlink:href="#a4cHPsi9n" opacity="1" fill="#9a4993" fill-opacity="1"></use><g><use xlink:href="#a4cHPsi9n" opacity="1" fill-opacity="0" stroke="#000000" stroke-width="1" stroke-opacity="0"></use></g></g><g><use xlink:href="#a2QShUlrXq" opacity="1" fill="#6a1577" fill-opacity="1"></use><g><use xlink:href="#a2QShUlrXq" opacity="1" fill-opacity="0" stroke="#000000" stroke-width="1" stroke-opacity="0"></use></g></g><g><use xlink:href="#aKwdL3drb" opacity="1" fill="#6a1577" fill-opacity="1"></use><g><use xlink:href="#aKwdL3drb" opacity="1" fill-opacity="0" stroke="#000000" stroke-width="1" stroke-opacity="0"></use></g></g><g><use xlink:href="#e7OKnQHFX5" opacity="1" fill="#813084" fill-opacity="1"></use><g><use xlink:href="#e7OKnQHFX5" opacity="1" fill-opacity="0" stroke="#000000" stroke-width="1" stroke-opacity="0"></use></g></g><g><use xlink:href="#e96YfvY50G" opacity="1" fill="#ffffff" fill-opacity="1"></use><g><use xlink:href="#e96YfvY50G" opacity="1" fill-opacity="0" stroke="#000000" stroke-width="1" stroke-opacity="0"></use></g></g><g><use xlink:href="#g1Y0I8xi7b" opacity="1" fill="#ffffff" fill-opacity="1"></use><g><use xlink:href="#g1Y0I8xi7b" opacity="1" fill-opacity="0" stroke="#000000" stroke-width="1" stroke-opacity="0"></use></g></g><g><use xlink:href="#bjfsZWGvs" opacity="1" fill="#ffffff" fill-opacity="1"></use><g><use xlink:href="#bjfsZWGvs" opacity="1" fill-opacity="0" stroke="#000000" stroke-width="1" stroke-opacity="0"></use></g></g><g><use xlink:href="#a3tReyokXR" opacity="1" fill="#ffffff" fill-opacity="1"></use><g><use xlink:href="#a3tReyokXR" opacity="1" fill-opacity="0" stroke="#000000" stroke-width="1" stroke-opacity="0"></use></g></g><g><use xlink:href="#b3ND0kWmYr" opacity="1" fill="#ffffff" fill-opacity="1"></use><g><use xlink:href="#b3ND0kWmYr" opacity="1" fill-opacity="0" stroke="#000000" stroke-width="1" stroke-opacity="0"></use></g></g></g></g></svg>