<svg viewBox="-32 1 511 511.99999" xmlns="http://www.w3.org/2000/svg"><path d="m305.628906.253906h-120.320312c-13.21875 0-24.058594 10.464844-24.058594 23.683594v39.3125h167.996094v-39.3125c0-13.21875-10.398438-23.683594-23.617188-23.683594zm0 0" fill="#707384"/><path d="m161.25 125.832031v38.976563c0 13.21875 10.835938 23.441406 24.058594 23.441406h120.316406c13.222656 0 23.621094-10.222656 23.621094-23.441406v-101.558594h-167.996094zm0 0" fill="#707384"/><path d="m329.566406 62.914062h-168.195312v-38.976562c0-13.21875 10.714844-23.9375 23.9375-23.9375h120.320312c13.21875 0 23.9375 10.71875 23.9375 23.9375zm0 0" fill="#707384"/><path d="m161.371094 62.917969h168.195312v62.914062h-168.195312zm0 0" fill="#5b5c6c"/><path d="m305.628906 188.746094h-120.320312c-13.21875 0-23.9375-10.71875-23.9375-23.9375v-38.976563h168.195312v38.976563c0 13.21875-10.71875 23.9375-23.9375 23.9375zm0 0" fill="#707384"/><path d="m329.566406 23.929688v38.988281h-32.757812v-38.988281c0-13.214844-10.71875-23.92578175-23.9375-23.92578175h32.757812c13.21875 0 23.9375 10.71093775 23.9375 23.92578175zm0 0" fill="#5b5c6c"/><path d="m296.808594 62.917969h32.757812v62.910156h-32.757812zm0 0" fill="#3b3b47"/><path d="m329.566406 125.828125v38.988281c0 13.214844-10.71875 23.929688-23.9375 23.929688h-32.757812c13.21875 0 23.9375-10.714844 23.9375-23.929688v-38.988281zm0 0" fill="#5b5c6c"/><path d="m199.421875 31.457031c0 4.496094-3.644531 8.140625-8.136719 8.140625-4.496094 0-8.140625-3.644531-8.140625-8.140625 0-4.492187 3.644531-8.136719 8.140625-8.136719 4.492188 0 8.136719 3.644532 8.136719 8.136719zm0 0" fill="#ffb96a"/><path d="m228.992188 31.457031c0 4.496094-3.644532 8.140625-8.136719 8.140625-4.496094 0-8.140625-3.644531-8.140625-8.140625 0-4.492187 3.644531-8.136719 8.140625-8.136719 4.492187 0 8.136719 3.644532 8.136719 8.136719zm0 0" fill="#a7d16c"/><path d="m199.421875 94.375c0 4.492188-3.644531 8.136719-8.136719 8.136719-4.496094 0-8.140625-3.644531-8.140625-8.136719 0-4.496094 3.644531-8.140625 8.140625-8.140625 4.492188 0 8.136719 3.644531 8.136719 8.140625zm0 0" fill="#ffb96a"/><path d="m228.992188 94.375c0 4.492188-3.644532 8.136719-8.136719 8.136719-4.496094 0-8.140625-3.644531-8.140625-8.136719 0-4.496094 3.644531-8.140625 8.140625-8.140625 4.492187 0 8.136719 3.644531 8.136719 8.140625zm0 0" fill="#a7d16c"/><path d="m199.421875 157.289062c0 4.492188-3.644531 8.136719-8.136719 8.136719-4.496094 0-8.140625-3.644531-8.140625-8.136719 0-4.496093 3.644531-8.136718 8.140625-8.136718 4.492188 0 8.136719 3.640625 8.136719 8.136718zm0 0" fill="#ffb96a"/><path d="m228.992188 157.289062c0 4.492188-3.644532 8.136719-8.136719 8.136719-4.496094 0-8.140625-3.644531-8.140625-8.136719 0-4.496093 3.644531-8.136718 8.140625-8.136718 4.492187 0 8.136719 3.640625 8.136719 8.136718zm0 0" fill="#a7d16c"/><path d="m279.824219 39.148438h21.511719c4.25 0 7.695312-3.441407 7.695312-7.6875 0-4.246094-3.445312-7.691407-7.695312-7.691407h-21.511719c-4.25 0-7.691407 3.445313-7.691407 7.691407 0 4.246093 3.441407 7.6875 7.691407 7.6875zm0 0" fill="#d7deed"/><path d="m301.335938 86.683594h-21.511719c-4.25 0-7.691407 3.441406-7.691407 7.691406 0 4.246094 3.441407 7.6875 7.691407 7.6875h21.511719c4.25 0 7.695312-3.441406 7.695312-7.6875 0-4.25-3.445312-7.691406-7.695312-7.691406zm0 0" fill="#d7deed"/><path d="m301.335938 149.597656h-21.511719c-4.25 0-7.691407 3.445313-7.691407 7.691406 0 4.246094 3.441407 7.6875 7.691407 7.6875h21.511719c4.25 0 7.695312-3.441406 7.695312-7.6875 0-4.246093-3.445312-7.691406-7.695312-7.691406zm0 0" fill="#d7deed"/><path d="m200.800781 456.71875h-200.300781v-115.910156c0-9.976563 8.085938-18.0625 18.058594-18.0625h164.183594c9.972656 0 18.058593 8.085937 18.058593 18.0625zm0 0" fill="#54a1ff"/><path d="m182.738281 322.746094h-28.03125c9.976563 0 18.0625 8.085937 18.0625 18.058594v105.914062h28.03125v-105.914062c0-9.972657-8.085937-18.058594-18.0625-18.058594zm0 0" fill="#4a7fdd"/><path d="m77.867188 471.898438h45.566406v28.414062h-45.566406zm0 0" fill="#c7cfe2"/><path d="m.5 446.71875h200.300781v24.769531c0 2.4375-1.972656 4.410157-4.410156 4.410157h-191.480469c-2.433594 0-4.410156-1.972657-4.410156-4.410157zm0 0" fill="#5b5c6c"/><path d="m172.789062 446.71875v24.769531c0 2.4375-1.972656 4.410157-4.410156 4.410157h28.011719c2.4375 0 4.410156-1.972657 4.410156-4.410157v-24.769531zm0 0" fill="#464655"/><path d="m133.261719 512h-65.222657c-4.25 0-7.691406-3.441406-7.691406-7.6875 0-4.25 3.441406-7.691406 7.691406-7.691406h65.222657c4.25 0 7.691406 3.441406 7.691406 7.691406 0 4.246094-3.441406 7.6875-7.691406 7.6875zm0 0" fill="#707487"/><g fill="#fff"><path d="m83.183594 421.21875c0 4.246094-3.445313 7.691406-7.695313 7.691406-4.246093 0-7.691406-3.445312-7.691406-7.691406 0-4.25 3.445313-7.691406 7.691406-7.691406 4.25 0 7.695313 3.441406 7.695313 7.691406zm0 0"/><path d="m108.101562 421.21875c0 4.246094-3.445312 7.691406-7.691406 7.691406-4.25 0-7.695312-3.445312-7.695312-7.691406 0-4.25 3.445312-7.691406 7.695312-7.691406 4.246094 0 7.691406 3.441406 7.691406 7.691406zm0 0"/><path d="m132.957031 421.21875c0 4.246094-3.445312 7.691406-7.691406 7.691406-4.25 0-7.691406-3.445312-7.691406-7.691406 0-4.25 3.441406-7.691406 7.691406-7.691406 4.246094 0 7.691406 3.441406 7.691406 7.691406zm0 0"/><path d="m158.9375 421.21875c0 4.246094-3.445312 7.691406-7.691406 7.691406-4.25 0-7.691406-3.445312-7.691406-7.691406 0-4.25 3.441406-7.691406 7.691406-7.691406 4.246094 0 7.691406 3.441406 7.691406 7.691406zm0 0"/><path d="m57.746094 421.21875c0 4.246094-3.441406 7.691406-7.691406 7.691406-4.246094 0-7.691407-3.445312-7.691407-7.691406 0-4.25 3.445313-7.691406 7.691407-7.691406 4.25 0 7.691406 3.441406 7.691406 7.691406zm0 0"/></g><path d="m431.726562 504.3125h-71.851562c-8.984375 0-16.269531-7.285156-16.269531-16.269531v-149.027344c0-8.984375 7.285156-16.269531 16.269531-16.269531h71.851562c8.984376 0 16.269532 7.285156 16.269532 16.269531v149.027344c0 8.984375-7.28125 16.269531-16.269532 16.269531zm0 0" fill="#5b5c6c"/><path d="m448 339.011719v149.035156c0 8.980469-7.285156 16.261719-16.277344 16.261719h-20c8.996094 0 16.277344-7.28125 16.277344-16.261719v-149.035156c0-8.980469-7.28125-16.261719-16.277344-16.261719h20c8.996094 0 16.277344 7.28125 16.277344 16.261719zm0 0" fill="#464655"/><path d="m431.726562 483.097656h-71.851562c-8.984375 0-16.269531-7.285156-16.269531-16.269531v-106.597656c0-8.984375 7.285156-16.269531 16.269531-16.269531h71.851562c8.984376 0 16.269532 7.285156 16.269532 16.269531v106.597656c0 8.984375-7.28125 16.269531-16.269532 16.269531zm0 0" fill="#ffd764"/><path d="m448 360.222656v106.605469c0 8.988281-7.292969 16.269531-16.277344 16.269531h-3.722656v-139.132812h3.722656c8.984375 0 16.277344 7.277344 16.277344 16.257812zm0 0" fill="#ffb442"/><path d="m371.730469 246.617188h-118.570313v-28.242188c0-4.246094-3.445312-7.691406-7.691406-7.691406-4.25 0-7.695312 3.445312-7.695312 7.691406v28.242188h-118.570313c-15.625 0-28.339844 12.710937-28.339844 28.332031v18.019531c0 4.246094 3.441407 7.6875 7.691407 7.6875s7.691406-3.441406 7.691406-7.6875v-18.019531c0-7.140625 5.8125-12.953125 12.957031-12.953125h252.527344c7.144531 0 12.957031 5.8125 12.957031 12.953125v18.019531c0 4.246094 3.445312 7.6875 7.691406 7.6875 4.25 0 7.695313-3.441406 7.695313-7.6875v-18.019531c0-15.621094-12.714844-28.332031-28.34375-28.332031zm0 0" fill="#e4eaf7"/></svg>