<?xml version="1.0" encoding="UTF-8" standalone="no"?>
<!DOCTYPE svg PUBLIC "-//W3C//DTD SVG 1.1//EN" "http://www.w3.org/Graphics/SVG/1.1/DTD/svg11.dtd">
<svg version="1.1" xmlns="http://www.w3.org/2000/svg" xmlns:xlink="http://www.w3.org/1999/xlink" preserveAspectRatio="xMidYMid meet" viewBox="0 0 640 640" width="640" height="640"><defs><path d="M302.89 16.94C152.29 100.27 68.62 146.57 51.88 155.83C42.47 160.99 36.69 170.61 36.69 180.99C36.69 208.79 36.69 431.12 36.69 458.92C36.69 469.3 42.47 478.87 51.88 484.08C76.99 497.98 277.84 609.17 302.95 623.07C312.31 628.24 323.92 628.24 333.28 623.07C358.38 609.17 559.19 497.98 584.29 484.08C593.6 478.87 599.38 469.3 599.38 458.92C599.38 431.12 599.38 208.79 599.38 180.99C599.38 170.61 593.6 161.04 584.19 155.83C559.09 141.94 358.32 30.83 333.23 16.94C328.52 14.33 323.25 13.05 318.04 13.05C312.77 13.05 307.55 14.33 302.84 16.94M1594.38 267.14C1569.28 281.01 1555.33 288.72 1552.54 290.26C1550.95 291.13 1550.03 292.72 1550.03 294.45C1550.03 299.09 1550.03 336.17 1550.03 340.8C1550.03 342.54 1551 344.13 1552.54 345C1556.72 347.31 1590.2 365.85 1594.38 368.17C1595.97 369.04 1597.86 369.04 1599.45 368.17C1603.63 365.85 1637.11 347.31 1641.29 345C1642.83 344.13 1643.8 342.54 1643.8 340.8C1643.8 336.17 1643.8 299.09 1643.8 294.45C1643.8 292.72 1642.83 291.13 1641.24 290.26C1637.06 287.95 1603.58 269.45 1599.4 267.14C1598.63 266.68 1597.76 266.47 1596.89 266.47C1596.02 266.47 1595.15 266.68 1594.38 267.14" id="hukPuwawl"></path><path d="M302.89 16.94C143.17 282.13 54.44 429.45 36.69 458.92C36.69 469.3 42.47 478.87 51.88 484.08C76.99 497.98 277.84 609.17 302.95 623.07C312.31 628.24 323.92 628.24 333.28 623.07C359.89 578.86 572.77 225.2 599.38 180.99C599.38 170.61 593.6 161.04 584.19 155.83C559.09 141.94 358.32 30.83 333.23 16.94C328.52 14.33 323.25 13.05 318.04 13.05C312.77 13.05 307.55 14.33 302.84 16.94" id="d1csbPPmBy"></path><path d="M302.89 16.94C152.29 100.27 68.62 146.57 51.88 155.83C42.47 160.99 36.69 170.61 36.69 180.99C63.31 225.2 276.27 578.86 302.89 623.07C312.26 628.24 323.87 628.24 333.23 623.07C358.33 609.17 559.14 497.98 584.24 484.08C593.6 478.87 599.38 469.3 599.38 458.92C572.77 414.72 359.84 61.14 333.23 16.94C328.52 14.33 323.25 13.05 318.04 13.05C312.77 13.05 307.55 14.33 302.84 16.94" id="b1sEn5fNsH"></path></defs><g><g><g><use xlink:href="#hukPuwawl" opacity="1" fill="#388e3c" fill-opacity="1"></use><g><use xlink:href="#hukPuwawl" opacity="1" fill-opacity="0" stroke="#000000" stroke-width="1" stroke-opacity="0"></use></g></g><g><use xlink:href="#d1csbPPmBy" opacity="1" fill="#2e7d32" fill-opacity="1"></use><g><use xlink:href="#d1csbPPmBy" opacity="1" fill-opacity="0" stroke="#000000" stroke-width="1" stroke-opacity="0"></use></g></g><g><use xlink:href="#b1sEn5fNsH" opacity="1" fill="#4caf50" fill-opacity="1"></use><g><use xlink:href="#b1sEn5fNsH" opacity="1" fill-opacity="0" stroke="#000000" stroke-width="1" stroke-opacity="0"></use></g></g></g></g></svg>