<svg id="Layer_1" enable-background="new 0 0 512 512" height="512" viewBox="0 0 512 512" width="512" xmlns="http://www.w3.org/2000/svg"><g><g fill="#56788b"><path d="m176.423 38.344-21.059-21.025c-1.391-1.469-3.348-2.345-5.448-2.345h-112.416v15h109.309l16.815 16.788.002 45.994 15-.001-.002-49.104c0-1.991-.792-3.901-2.201-5.307z"/><path d="m362.084 14.974c-2.086 0-4.03.864-5.419 2.316l-21.088 21.054c-1.409 1.407-2.201 3.316-2.201 5.307l-.002 49.104 15 .001.002-45.994 16.815-16.788h109.309v-15z"/><path d="m248.5 37.447h15v55.308h-15z"/><path d="m163.624 465.238-16.815 16.788h-109.309v15h112.416c2.086 0 4.03-.865 5.419-2.316l21.088-21.054c1.409-1.407 2.201-3.316 2.201-5.307l.002-50.103-15-.001z"/><path d="m348.376 465.238-.002-46.993-15 .001.002 50.103c0 1.991.792 3.9 2.201 5.307l21.059 21.025c1.391 1.469 3.348 2.345 5.448 2.345h112.416v-15h-109.309z"/><path d="m248.5 418.246h15v56.307h-15z"/></g><g><path d="m37.5 0h-30c-4.143 0-7.5 3.358-7.5 7.5v29.947c0 4.142 3.357 7.5 7.5 7.5h30c4.143 0 7.5-3.358 7.5-7.5v-29.947c0-4.142-3.357-7.5-7.5-7.5z" fill="#ff4656"/><path d="m504.5 0h-30c-4.143 0-7.5 3.358-7.5 7.5v29.947c0 4.142 3.357 7.5 7.5 7.5h30c4.143 0 7.5-3.358 7.5-7.5v-29.947c0-4.142-3.357-7.5-7.5-7.5z" fill="#ff4656"/><path d="m271 0h-30c-4.143 0-7.5 3.358-7.5 7.5v29.947c0 4.142 3.357 7.5 7.5 7.5h30c4.143 0 7.5-3.358 7.5-7.5v-29.947c0-4.142-3.357-7.5-7.5-7.5z" fill="#00cec8"/><path d="m37.5 467.053h-30c-4.143 0-7.5 3.358-7.5 7.5v29.947c0 4.142 3.357 7.5 7.5 7.5h30c4.143 0 7.5-3.358 7.5-7.5v-29.947c0-4.142-3.357-7.5-7.5-7.5z" fill="#ff4656"/><path d="m504.5 467.053h-30c-4.143 0-7.5 3.358-7.5 7.5v29.947c0 4.142 3.357 7.5 7.5 7.5h30c4.143 0 7.5-3.358 7.5-7.5v-29.947c0-4.142-3.357-7.5-7.5-7.5z" fill="#ff4656"/><path d="m271 467.053h-30c-4.143 0-7.5 3.358-7.5 7.5v29.947c0 4.142 3.357 7.5 7.5 7.5h30c4.143 0 7.5-3.358 7.5-7.5v-29.947c0-4.142-3.357-7.5-7.5-7.5z" fill="#00cec8"/></g><g><g><g><path d="m388.5 300.285v30c0 4.14-3.36 7.5-7.5 7.5h-250c-4.14 0-7.5-3.36-7.5-7.5v-30c0-4.14 3.36-7.5 7.5-7.5h250c4.14 0 7.5 3.36 7.5 7.5z" fill="#b9cfdf"/><path d="m388.5 300.285v30c0 4.14-3.36 7.5-7.5 7.5h-20c4.14 0 7.5-3.36 7.5-7.5v-30c0-4.14-3.36-7.5-7.5-7.5h20c4.14 0 7.5 3.36 7.5 7.5z" fill="#90abbd"/></g><g><path d="m408.5 330.28v88.57c0 4.14-3.36 7.5-7.5 7.5h-290c-4.14 0-7.5-3.36-7.5-7.5v-88.57c0-4.14 3.36-7.5 7.5-7.5h290c4.14 0 7.5 3.36 7.5 7.5z" fill="#eef0f5"/><path d="m408.5 330.28v88.57c0 4.14-3.36 7.5-7.5 7.5h-290c-4.14 0-7.5-3.36-7.5-7.5v-12.5h277.5c4.14 0 7.5-3.36 7.5-7.5v-68.57c0-4.14-3.36-7.5-7.5-7.5h20c4.14 0 7.5 3.36 7.5 7.5z" fill="#dae1ea"/><g><path d="m171.126 354.565h-30c-2.761 0-5 2.239-5 5v29.999c0 2.761 2.239 5 5 5h30c2.761 0 5-2.239 5-5v-29.999c0-2.762-2.239-5-5-5z" fill="#00cec8"/><path d="m231.126 354.565h-30c-2.761 0-5 2.239-5 5v29.999c0 2.761 2.239 5 5 5h30c2.761 0 5-2.239 5-5v-29.999c0-2.762-2.239-5-5-5z" fill="#ff4656"/></g><g><circle cx="271.618" cy="374.564" fill="#ff4656" r="7.5"/><circle cx="315.118" cy="374.565" fill="#90abbd" r="7.5"/><g fill="#00cec8"><circle cx="358.618" cy="374.565" r="7.5"/><circle cx="358.618" cy="374.566" r="7.5"/></g></g></g><g><path d="m388.5 181.72v30c0 4.14-3.36 7.5-7.5 7.5h-250c-4.14 0-7.5-3.36-7.5-7.5v-30c0-4.14 3.36-7.5 7.5-7.5h250c4.14 0 7.5 3.36 7.5 7.5z" fill="#b9cfdf"/><path d="m388.5 181.72v30c0 4.14-3.36 7.5-7.5 7.5h-20c4.14 0 7.5-3.36 7.5-7.5v-30c0-4.14-3.36-7.5-7.5-7.5h20c4.14 0 7.5 3.36 7.5 7.5z" fill="#90abbd"/></g><g><path d="m408.5 211.715v88.57c0 4.14-3.36 7.5-7.5 7.5h-290c-4.14 0-7.5-3.36-7.5-7.5v-88.57c0-4.14 3.36-7.5 7.5-7.5h290c4.14 0 7.5 3.36 7.5 7.5z" fill="#eef0f5"/><path d="m408.5 211.715v88.57c0 4.14-3.36 7.5-7.5 7.5h-290c-4.14 0-7.5-3.36-7.5-7.5v-12.5h277.5c4.14 0 7.5-3.36 7.5-7.5v-68.57c0-4.14-3.36-7.5-7.5-7.5h20c4.14 0 7.5 3.36 7.5 7.5z" fill="#dae1ea"/><g><path d="m171.126 236h-30c-2.761 0-5 2.239-5 5v29.999c0 2.761 2.239 5 5 5h30c2.761 0 5-2.239 5-5v-29.999c0-2.761-2.239-5-5-5z" fill="#00cec8"/><path d="m231.126 236h-30c-2.761 0-5 2.239-5 5v29.999c0 2.761 2.239 5 5 5h30c2.761 0 5-2.239 5-5v-29.999c0-2.761-2.239-5-5-5z" fill="#ff4656"/></g><g><circle cx="271.618" cy="255.999" fill="#ff4656" r="7.5"/><circle cx="315.118" cy="256" fill="#90abbd" r="7.5"/><g fill="#00cec8"><circle cx="358.618" cy="256" r="7.5"/><circle cx="358.618" cy="256.001" r="7.5"/></g></g></g><g><path d="m408.5 93.15v88.57c0 4.14-3.36 7.5-7.5 7.5h-290c-4.14 0-7.5-3.36-7.5-7.5v-88.57c0-4.14 3.36-7.5 7.5-7.5h290c4.14 0 7.5 3.36 7.5 7.5z" fill="#eef0f5"/><path d="m408.5 93.15v88.57c0 4.14-3.36 7.5-7.5 7.5h-290c-4.14 0-7.5-3.36-7.5-7.5v-12.5h277.5c4.14 0 7.5-3.36 7.5-7.5v-68.57c0-4.14-3.36-7.5-7.5-7.5h20c4.14 0 7.5 3.36 7.5 7.5z" fill="#dae1ea"/><g><path d="m171.126 117.435h-30c-2.761 0-5 2.239-5 5v29.999c0 2.761 2.239 5 5 5h30c2.761 0 5-2.239 5-5v-29.999c0-2.762-2.239-5-5-5z" fill="#00cec8"/><path d="m231.126 117.435h-30c-2.761 0-5 2.239-5 5v29.999c0 2.761 2.239 5 5 5h30c2.761 0 5-2.239 5-5v-29.999c0-2.762-2.239-5-5-5z" fill="#ff4656"/></g><g><circle cx="271.618" cy="137.434" fill="#ff4656" r="7.5"/><circle cx="315.118" cy="137.435" fill="#90abbd" r="7.5"/><g fill="#00cec8"><circle cx="358.618" cy="137.435" r="7.5"/><circle cx="358.618" cy="137.436" r="7.5"/></g></g></g></g></g></g></svg>