<svg id="Flat" height="512" viewBox="0 0 512 512" width="512" xmlns="http://www.w3.org/2000/svg"><path d="m352 488h-192l-40-336h272z" fill="#eb423f"/><path d="m355.81 456-3.81 32h-192l-3.81-32z" fill="#e9eef2"/><path d="m380.57 248-11.43 96h-226.28l-11.43-96z" fill="#c7312e"/><path d="m104 120h304v32h-304z" fill="#e9eef2"/><path d="m376 24h-32l-16 96h32z" fill="#eb423f"/><path d="m312 344h-16a24.027 24.027 0 0 0 -24-24h-64a40.045 40.045 0 0 1 -40-40v-32h16v32a24.027 24.027 0 0 0 24 24h64a40.045 40.045 0 0 1 40 40z" fill="#dadcde"/><g fill="#e9eef2"><path d="m312 344h-16a24.027 24.027 0 0 0 -24-24h-32a40.045 40.045 0 0 1 -40-40v-32h16v32a24.027 24.027 0 0 0 24 24h32a40.045 40.045 0 0 1 40 40z"/><circle cx="336" cy="280" r="8"/><circle cx="304" cy="280" r="8"/><circle cx="336" cy="312" r="8"/></g></svg>