<svg id="Capa_1" enable-background="new 0 0 497 497" height="512" viewBox="0 0 497 497" width="512" xmlns="http://www.w3.org/2000/svg"><g><path d="m298.2 166.309-13.995-119.609h-85.405v36.172l10 25.087-10 24.576v33.774c0 10.065-4.575 19.585-12.435 25.873l-44.65 46.713c-5.893 6.165-9.182 14.365-9.182 22.894v202.079c0 18.299 14.834 33.133 33.133 33.133h165.667c18.299 0 33.133-14.834 33.133-33.133v-202.08c0-8.529-3.289-16.729-9.182-22.894l-44.65-46.713c-7.859-6.287-12.434-15.807-12.434-25.872z" fill="#e55964"/><path d="m355.285 238.894-44.65-46.713c-7.86-6.288-12.435-15.807-12.435-25.873v-33.827l-8-26.129 8-23.525v-36.127h-23v119.609c0 10.065 4.575 19.585 12.435 25.873l44.65 46.713c5.893 6.165 9.182 14.365 9.182 22.894v202.079c0 18.299-14.834 33.133-33.133 33.133h23c18.299 0 33.133-14.834 33.133-33.133v-202.08c0-8.528-3.289-16.729-9.182-22.894z" fill="#db404f"/><path d="m306.767 49.7h-116.534c-4.418 0-8-3.582-8-8v-25.7c0-8.837 7.163-16 16-16h100.533c8.837 0 16 7.163 16 16v25.7c.001 4.418-3.581 8-7.999 8z" fill="#faf8fa"/><g fill="#eceaec"><path d="m207.867 49.7v-16.566c0-4.143 3.358-7.5 7.5-7.5s7.5 3.357 7.5 7.5v16.566z"/><path d="m274.133 49.7v-16.566c0-4.143 3.358-7.5 7.5-7.5s7.5 3.357 7.5 7.5v16.566z"/><path d="m241 49.7v-16.566c0-4.143 3.358-7.5 7.5-7.5s7.5 3.357 7.5 7.5v16.566z"/></g><path d="m316.123 297.475c-13.54-2.88-24.021-14.03-25.904-27.912-.382-2.814-2.162-5.24-4.798-6.294l-30.768-12.307c-3.95-1.58-8.356-1.58-12.305 0l-30.768 12.307c-2.636 1.055-4.417 3.481-4.798 6.294-1.883 13.882-12.364 25.032-25.904 27.912-3.928.836-6.665 4.395-6.379 8.401l7.186 100.598c.31 4.335 3.916 7.693 8.262 7.693h117.108c4.346 0 7.953-3.358 8.262-7.693l7.186-100.598c.285-4.006-2.452-7.566-6.38-8.401z" fill="#faf8fa"/><path d="m273.633 347.9h-50.267c-4.418 0-8-3.582-8-8v-17.133c0-4.418 3.582-8 8-8h50.267c4.418 0 8 3.582 8 8v17.133c0 4.418-3.581 8-8 8z" fill="#b3e59f"/><g><g><path d="m265.067 388.533h-33.134c-4.142 0-7.5-3.357-7.5-7.5s3.358-7.5 7.5-7.5h33.134c4.142 0 7.5 3.357 7.5 7.5s-3.358 7.5-7.5 7.5z" fill="#6f6571"/></g></g><g><path d="m298.2 132.533h-26.397c-3.506 0-6.52 2.287-7.702 5.587-2.293 6.4-8.412 10.979-15.601 10.979s-13.308-4.579-15.601-10.979c-1.182-3.301-4.196-5.587-7.702-5.587h-26.397v-49.7h99.4z" fill="#ffd97d"/><g><path d="m275.2 82.833h23v49.7h-23z" fill="#ffc269"/></g></g><path d="m298.767 0h-23c8.837 0 16 7.163 16 16v25.7c0 4.418-3.582 8-8 8h23c4.418 0 8-3.582 8-8v-25.7c0-8.837-7.164-16-16-16z" fill="#eceaec"/><path d="m273.633 314.767h-23c4.418 0 8 3.582 8 8v17.133c0 4.418-3.582 8-8 8h23c4.418 0 8-3.582 8-8v-17.133c0-4.419-3.581-8-8-8z" fill="#92db91"/><path d="m316.123 297.475c-13.54-2.88-24.021-14.03-25.904-27.912-.382-2.814-2.162-5.24-4.798-6.294l-30.768-12.307c-3.95-1.58-8.356-1.58-12.305 0l-5.475 2.19 25.293 10.117c2.636 1.055 4.417 3.481 4.798 6.294 1.883 13.882 12.364 25.032 25.904 27.912 3.928.836 6.665 4.395 6.379 8.401l-7.186 100.598c-.31 4.335-3.916 7.693-8.262 7.693h23.256c4.346 0 7.953-3.358 8.262-7.693l7.186-100.598c.285-4.006-2.452-7.566-6.38-8.401z" fill="#eceaec"/></g></svg>