<svg id="Flat" height="512" viewBox="0 0 512 512" width="512" xmlns="http://www.w3.org/2000/svg"><path d="m352 384h16v-32a8 8 0 0 0 -2.878-6.146l-48-40-10.244 12.292 45.122 37.601z" fill="#6a6a33"/><rect fill="#798b9b" height="48" rx="16" transform="matrix(-1 0 0 -1 720 800)" width="32" x="344" y="376"/><path d="m248 80h16v80h-16z" fill="#798b9b"/><path d="m160 384h-16v-32a8 8 0 0 1 2.878-6.146l48-40 10.244 12.292-45.122 37.601z" fill="#6a6a33"/><rect fill="#798b9b" height="48" rx="16" width="32" x="136" y="376"/><path d="m48 256h16v48h-16z" fill="#8d8d54"/><path d="m120 256h16v48h-16z" fill="#8d8d54"/><path d="m176 216-152 24v24h168v-56z" fill="#6a6a33"/><circle cx="56" cy="312" fill="#b9b973" r="16"/><circle cx="128" cy="312" fill="#b9b973" r="16"/><path d="m208 184h96l16-16-24-24h-80l-24 24z" fill="#6a6a33"/><path d="m303.6 342a71.791 71.791 0 0 0 24.4-54v-73.008l-24-30.992h-96l-24 30.992v73.008a71.636 71.636 0 0 0 21.12 50.88c1.04 1.04 2.16 2.08 3.28 3.12z" fill="#8d8d54"/><circle cx="256" cy="336" fill="#4f4f26" r="48"/><path d="m248 328h16v16h-16z" fill="#6a6a33"/><path d="m296 232v32l-15.38-3.08-15.39-3.07-9.23-1.85-8.86 1.77-8.33 1.67-22.81 4.56v-32l29.48-5.9 8.33-1.66 2.19-.44 15.38 3.08 15.39 3.07z" fill="#ccdce5"/><path d="m248-130.196h16v468.393h-16z" fill="#57646f" transform="matrix(.137 -.991 .991 .137 117.996 343.389)"/><path d="m21.804 96h468.393v16h-468.393z" fill="#57646f" transform="matrix(.991 -.137 .137 .991 -11.811 35.961)"/><path d="m260.311 236.153h31.379v15.693h-31.379z" fill="#e9f0f1" transform="matrix(.196 -.981 .981 .196 -17.362 466.824)"/><path d="m253.81 224.44-6.67 33.33-8.33 1.67 6.67-33.34z" fill="#e9f0f1"/><circle cx="176" cy="184" fill="#4f4f26" r="32"/><path d="m168 176h16v16h-16z" fill="#ffc119"/><path d="m448 256h16v48h-16z" fill="#8d8d54"/><path d="m376 256h16v48h-16z" fill="#8d8d54"/><path d="m336 216 152 24v24h-168v-56z" fill="#6a6a33"/><circle cx="456" cy="312" fill="#b9b973" r="16"/><circle cx="384" cy="312" fill="#b9b973" r="16"/><circle cx="336" cy="184" fill="#4f4f26" r="32"/><path d="m328 176h16v16h-16z" fill="#ffc119"/></svg>