<?xml version="1.0" encoding="UTF-8" standalone="no"?>
<!DOCTYPE svg PUBLIC "-//W3C//DTD SVG 1.1//EN" "http://www.w3.org/Graphics/SVG/1.1/DTD/svg11.dtd">
<svg version="1.1" xmlns="http://www.w3.org/2000/svg" xmlns:xlink="http://www.w3.org/1999/xlink" preserveAspectRatio="xMidYMid meet" viewBox="0 0 640 640" width="300" height="300"><defs><path d="M533.5 320.5C533.5 438.06 438.06 533.5 320.5 533.5C202.94 533.5 107.5 438.06 107.5 320.5C107.5 202.94 202.94 107.5 320.5 107.5C438.06 107.5 533.5 202.94 533.5 320.5Z" id="ahfNCNzPt"></path><path d="M521.05 320C521.05 430.38 431.43 520 321.05 520C210.66 520 121.05 430.38 121.05 320C121.05 209.62 210.66 120 321.05 120C431.43 120 521.05 209.62 521.05 320Z" id="c4BXMIvv1V"></path><path d="M273.22 292.18C228.78 370.72 174.13 423.98 151.26 411.04C128.38 398.09 145.88 323.82 190.32 245.28C234.76 166.74 289.41 113.48 312.28 126.43C335.16 139.37 317.66 213.64 273.22 292.18Z" id="afpckQ7j9"></path><path d="M370.6 290.91C415.04 369.45 468.49 423.38 489.88 411.28C511.28 399.17 492.58 325.58 448.14 247.04C403.71 168.5 350.26 114.56 328.86 126.67C307.46 138.77 326.16 212.37 370.6 290.91Z" id="bAOJ6N8N2"></path><path d="M321 466.83C411.24 466.83 484.5 446.87 484.5 422.29C484.5 397.7 411.24 377.74 321 377.74C230.76 377.74 157.5 397.7 157.5 422.29C157.5 446.87 230.76 466.83 321 466.83Z" id="b97uwugEo"></path><path d="M407.5 269.83L494 419.66L321 419.66L148 419.66L234.49 269.83L321 120L407.5 269.83Z" id="b123LgI83C"></path><path d="M400.75 274.63L480.5 412.71L321 412.71L161.5 412.71L241.24 274.63L321 136.54L400.75 274.63Z" id="c4ITBAUfg3"></path><path d="M361 343.23L400.5 274.63L321.5 274.63L242.5 274.63L282 343.23L321.5 411.83L361 343.23Z" id="abA4fu2d3"></path><path d="M356.08 339.29L389.83 280.67L322.33 280.67L254.83 280.67L288.58 339.29L322.33 397.9L356.08 339.29Z" id="d43L6AOcuq"></path><path d="M357.33 285C357.33 304.32 341.65 320 322.33 320C303.02 320 287.33 304.32 287.33 285C287.33 265.68 303.02 250 322.33 250C341.65 250 357.33 265.68 357.33 285Z" id="c2yQQdoxBI"></path><path d="M382.4 350.53C386.9 350.53 390.55 354.18 390.55 358.68C390.55 364.17 390.55 372.49 390.55 377.98C390.55 382.48 386.9 386.12 382.4 386.12C356.21 386.12 285.79 386.12 259.6 386.12C255.1 386.12 251.45 382.48 251.45 377.98C251.45 372.49 251.45 364.17 251.45 358.68C251.45 354.18 255.1 350.53 259.6 350.53C285.79 350.53 356.21 350.53 382.4 350.53Z" id="aDQ3XNLvO"></path><path d="M390.55 355.99C390.55 368 359.38 377.74 321 377.74C282.62 377.74 251.46 368 251.46 355.99C251.46 343.99 282.62 334.25 321 334.25C359.38 334.25 390.55 343.99 390.55 355.99Z" id="b4n42z6jo0"></path></defs><g><g><g><use xlink:href="#ahfNCNzPt" opacity="1" fill="#f0dd1b" fill-opacity="1"></use></g><g><use xlink:href="#c4BXMIvv1V" opacity="1" fill="#d81a0e" fill-opacity="1"></use></g><g><use xlink:href="#afpckQ7j9" opacity="1" fill="#f8f8f8" fill-opacity="1"></use></g><g><use xlink:href="#bAOJ6N8N2" opacity="1" fill="#f8f8f8" fill-opacity="1"></use></g><g><use xlink:href="#b97uwugEo" opacity="1" fill="#f8f8f8" fill-opacity="1"></use></g><g><use xlink:href="#b123LgI83C" opacity="1" fill="#f0dd1b" fill-opacity="1"></use></g><g><use xlink:href="#c4ITBAUfg3" opacity="1" fill="#d81a0e" fill-opacity="1"></use></g><g><use xlink:href="#abA4fu2d3" opacity="1" fill="#f0dd1b" fill-opacity="1"></use></g><g><use xlink:href="#d43L6AOcuq" opacity="1" fill="#d81a0e" fill-opacity="1"></use></g><g><use xlink:href="#c2yQQdoxBI" opacity="1" fill="#f8f8f8" fill-opacity="1"></use></g><g><use xlink:href="#aDQ3XNLvO" opacity="1" fill="#f8f8f8" fill-opacity="1"></use></g><g><use xlink:href="#b4n42z6jo0" opacity="1" fill="#f8f8f8" fill-opacity="1"></use></g></g></g></svg>